<svg xmlns="http://www.w3.org/2000/svg" width="89.068" height="76.264" viewBox="0 0 89.068 76.264">
  <g id="beer" transform="translate(0 -36.801)">
    <g id="Agrupar_51" data-name="Agrupar 51" transform="translate(45.536 50.095)">
      <g id="Agrupar_50" data-name="Agrupar 50">
        <path id="Caminho_73" data-name="Caminho 73" d="M303.985,162.715h-5.744a1.3,1.3,0,0,0-1.3,1.3v.475a3.138,3.138,0,0,1-1.8,2.849l-2.716-10.134h1.863a1.3,1.3,0,0,0,0-2.609h-2.622a6.867,6.867,0,0,1-.967-.07h0a6.848,6.848,0,0,1-5.869-6.768v-2.938a1.3,1.3,0,0,0-1.3-1.3h-3.4A4.227,4.227,0,0,1,275.9,139.3v-.186h10.32a8.759,8.759,0,0,1,4.836,1.447,1.3,1.3,0,0,0,1.437-2.178,11.351,11.351,0,0,0-5.8-1.868,16.356,16.356,0,0,0-6.31-6.588c-.389-1.441-.928-3.288-1.477-5.065-.426-1.374-1.01-3.19-1.551-4.652a4.219,4.219,0,0,0-4.277-6.846l-5.821,1.559a4.221,4.221,0,0,0-.281,8.069c.119.7.276,1.517.469,2.45a1.3,1.3,0,0,0,2.555-.53c-.273-1.318-.469-2.39-.583-3.187a1.305,1.305,0,0,0-1.19-1.117,1.613,1.613,0,0,1-.295-3.164l5.82-1.559a1.611,1.611,0,0,1,1.328,2.886,1.3,1.3,0,0,0-.472,1.562c.466,1.16,1.091,2.993,1.806,5.3.606,1.961,1.2,4.006,1.583,5.47a1.306,1.306,0,0,0,.6.793A15.75,15.75,0,0,1,283.7,136.5h-8.74a1.676,1.676,0,0,0-1.674,1.674V139.3a6.786,6.786,0,0,0,.772,3.148,10.438,10.438,0,0,0-1.1.885,4.563,4.563,0,0,0-3.326-1.768c-.019-.239-.032-.482-.032-.73a15.056,15.056,0,0,1,2.137-7.1,1.306,1.306,0,0,0,.124-.986c-.229-.842-.5-1.9-.762-2.978a1.3,1.3,0,0,0-2.536.616c.217.893.44,1.774.642,2.536a17.266,17.266,0,0,0-2.215,7.912c0,.243.01.482.025.72h-.694a4.567,4.567,0,0,0-.96,9.031,4.56,4.56,0,0,0,1.939,6.1,4.558,4.558,0,0,0,1.4,6.356,4.563,4.563,0,0,0,3.711,7.224h2.067l.977,3.647a3.08,3.08,0,0,0,3.774,2.179l14.047-3.763a3.082,3.082,0,0,0,2.21-2.319,5.729,5.729,0,0,0,4-4.677h4.5a1.3,1.3,0,1,0,0-2.609Zm-30.07-16.6h0a7.8,7.8,0,0,1,1.774-1.628,6.8,6.8,0,0,0,4.433,1.639h2.093v1.633a9.463,9.463,0,0,0,6.986,9.12,7.782,7.782,0,0,1-9.548,7.048,4.594,4.594,0,0,0-1.789-2.107,4.56,4.56,0,0,0-1.576-6.692,4.562,4.562,0,0,0-2.866-6.953A4.537,4.537,0,0,0,273.915,146.119Zm-7.591,1.957a1.957,1.957,0,1,1,0-3.914h3.025a1.957,1.957,0,1,1,0,3.914Zm1.157,4.567a1.959,1.959,0,0,1,1.957-1.957h3.025a1.957,1.957,0,0,1,0,3.915h-3.025A1.96,1.96,0,0,1,267.481,152.643Zm1.691,6.524a1.959,1.959,0,0,1,1.957-1.957h3.025a1.957,1.957,0,1,1,0,3.914h-3.025A1.959,1.959,0,0,1,269.172,159.167Zm6.27,8.481h-3.027a1.957,1.957,0,0,1,0-3.915h3.025a1.957,1.957,0,0,1,0,3.914Zm17.164,2.151-14.047,3.763a.473.473,0,0,1-.579-.334l-.88-3.285a4.583,4.583,0,0,0,2.808-3.309,10.282,10.282,0,0,0,1.524.115,10.39,10.39,0,0,0,9.3-5.764l2.207,8.235A.473.473,0,0,1,292.606,169.8Z" transform="translate(-261.757 -113.218)" fill="#5c6bc0"/>
      </g>
    </g>
    <g id="Agrupar_53" data-name="Agrupar 53" transform="translate(77.656 78.816)">
      <g id="Agrupar_52" data-name="Agrupar 52">
        <path id="Caminho_74" data-name="Caminho 74" d="M456.507,282.887h-6.446a11.412,11.412,0,0,0-1.2-3.862,1.3,1.3,0,0,0-2.314,1.206c1.361,2.61.9,4.69.991,6.015a1.3,1.3,0,1,0,2.609,0v-.75h6.358a1.3,1.3,0,1,0,0-2.609Z" transform="translate(-446.4 -278.323)" fill="#5c6bc0"/>
      </g>
    </g>
    <g id="Agrupar_55" data-name="Agrupar 55" transform="translate(0 50.095)">
      <g id="Agrupar_54" data-name="Agrupar 54">
        <path id="Caminho_75" data-name="Caminho 75" d="M43.532,146.12a4.572,4.572,0,0,0-4.567-4.567h-.694c.015-.238.025-.478.025-.72a17.264,17.264,0,0,0-2.215-7.912c.717-2.7,1.752-7.1,2.236-9.93a4.237,4.237,0,0,0,1.3-.722,4.221,4.221,0,0,0-1.578-7.347l-5.822-1.559a4.22,4.22,0,0,0-4.276,6.846c-.237.64-.5,1.391-.781,2.245a1.3,1.3,0,0,0,2.477.821c.4-1.216.757-2.206,1.053-2.943a1.3,1.3,0,0,0-.473-1.562,1.61,1.61,0,0,1,1.327-2.886l5.82,1.559a1.614,1.614,0,0,1-.294,3.164,1.3,1.3,0,0,0-1.19,1.117c-.389,2.731-1.7,8.252-2.45,11.024a1.3,1.3,0,0,0,.124.986,15.057,15.057,0,0,1,2.137,7.1c0,.244-.012.484-.031.72h-5.98a10.334,10.334,0,0,0-8.752,0H19.765l.694-2.59c.057-.215.124-.426.2-.632.015-.035.029-.071.041-.107,1.177-3.113,4.208-5.277,6-6.327a1.305,1.305,0,0,0,.6-.79c.228-.858.487-1.791.837-2.985a1.3,1.3,0,1,0-2.5-.733c-.235.8-.5,1.72-.717,2.538a16.679,16.679,0,0,0-6.318,6.59,11.39,11.39,0,0,0-10.84,9.988H1.3a1.3,1.3,0,0,0,0,2.609H8.969a1.3,1.3,0,0,0,1.3-1.292,8.8,8.8,0,0,1,4.65-7.672c.017-.009.033-.02.05-.03a8.7,8.7,0,0,1,2.714-.9l-.625,2.331H16.89a1.3,1.3,0,0,0,0,2.609H38.966a1.957,1.957,0,1,1,0,3.914H35.852a1.3,1.3,0,0,0,0,2.609,1.957,1.957,0,1,1,0,3.914H34.16a1.3,1.3,0,1,0,0,2.609,1.957,1.957,0,1,1,0,3.915H32.874a1.3,1.3,0,0,0,0,2.609,1.957,1.957,0,0,1,0,3.915H11.508A3.157,3.157,0,0,1,8.354,164.5v-.475a1.3,1.3,0,0,0-1.3-1.3H1.3a1.3,1.3,0,0,0,0,2.609H5.8A5.78,5.78,0,0,0,9.793,170a3.064,3.064,0,0,0,2.215,2.324c14.521,3.852,14.093,3.868,14.844,3.868a3.087,3.087,0,0,0,2.977-2.284l.978-3.647h2.066a4.565,4.565,0,0,0,3.713-7.223,4.562,4.562,0,0,0,1.4-6.356,4.565,4.565,0,0,0,1.939-6.095A4.575,4.575,0,0,0,43.532,146.12ZM27.309,173.23a.473.473,0,0,1-.579.334l-12.337-3.3H28.106Z" transform="translate(0 -113.219)" fill="#5c6bc0"/>
      </g>
    </g>
    <g id="Agrupar_57" data-name="Agrupar 57" transform="translate(43.229 36.801)">
      <g id="Agrupar_56" data-name="Agrupar 56">
        <path id="Caminho_76" data-name="Caminho 76" d="M249.8,36.8a1.3,1.3,0,0,0-1.3,1.3v5.33a1.3,1.3,0,1,0,2.609,0v-5.33A1.3,1.3,0,0,0,249.8,36.8Z" transform="translate(-248.5 -36.801)" fill="#5c6bc0"/>
      </g>
    </g>
    <g id="Agrupar_59" data-name="Agrupar 59" transform="translate(35.056 38.875)">
      <g id="Agrupar_58" data-name="Agrupar 58">
        <path id="Caminho_77" data-name="Caminho 77" d="M207.55,53.827l-3.714-4.616a1.3,1.3,0,1,0-2.033,1.636l3.714,4.616a1.3,1.3,0,0,0,2.033-1.636Z" transform="translate(-201.515 -48.724)" fill="#5c6bc0"/>
      </g>
    </g>
    <g id="Agrupar_61" data-name="Agrupar 61" transform="translate(47.689 38.875)">
      <g id="Agrupar_60" data-name="Agrupar 60">
        <path id="Caminho_78" data-name="Caminho 78" d="M279.972,49.012a1.3,1.3,0,0,0-1.834.2l-3.714,4.616a1.3,1.3,0,0,0,2.033,1.636l3.714-4.616A1.3,1.3,0,0,0,279.972,49.012Z" transform="translate(-274.135 -48.724)" fill="#5c6bc0"/>
      </g>
    </g>
  </g>
</svg>
