<svg xmlns="http://www.w3.org/2000/svg" width="53.999" height="44.693" viewBox="0 0 53.999 44.693">
  <g id="comment" transform="translate(0 -44.116)">
    <g id="Agrupar_21" data-name="Agrupar 21" transform="translate(9.301 56.79)">
      <g id="Agrupar_20" data-name="Agrupar 20" transform="translate(0 0)">
        <path id="Caminho_65" data-name="Caminho 65" d="M93.208,164.282H88.981a.793.793,0,0,0,0,1.585h4.228a.793.793,0,1,0,0-1.585Z" transform="translate(-88.188 -164.282)" fill="#5c6bc0"/>
      </g>
    </g>
    <g id="Agrupar_23" data-name="Agrupar 23" transform="translate(16.91 56.79)">
      <g id="Agrupar_22" data-name="Agrupar 22" transform="translate(0 0)">
        <path id="Caminho_66" data-name="Caminho 66" d="M168.743,164.282h-7.61a.793.793,0,1,0,0,1.585h7.61a.793.793,0,0,0,0-1.585Z" transform="translate(-160.34 -164.282)" fill="#5c6bc0"/>
      </g>
    </g>
    <g id="Agrupar_25" data-name="Agrupar 25" transform="translate(9.301 63.554)">
      <g id="Agrupar_24" data-name="Agrupar 24">
        <path id="Caminho_67" data-name="Caminho 67" d="M96.59,228.418h-7.61a.793.793,0,0,0,0,1.585h7.61a.793.793,0,1,0,0-1.585Z" transform="translate(-88.188 -228.418)" fill="#5c6bc0"/>
      </g>
    </g>
    <g id="Agrupar_27" data-name="Agrupar 27" transform="translate(9.301 67.782)">
      <g id="Agrupar_26" data-name="Agrupar 26" transform="translate(0 0)">
        <path id="Caminho_68" data-name="Caminho 68" d="M92.363,268.5H88.981a.793.793,0,0,0,0,1.585h3.382a.793.793,0,0,0,0-1.585Z" transform="translate(-88.188 -268.503)" fill="#5c6bc0"/>
      </g>
    </g>
    <g id="Agrupar_29" data-name="Agrupar 29" transform="translate(16.065 67.782)">
      <g id="Agrupar_28" data-name="Agrupar 28" transform="translate(0 0)">
        <path id="Caminho_69" data-name="Caminho 69" d="M159.881,268.5h-6.764a.793.793,0,1,0,0,1.585h6.764a.793.793,0,0,0,0-1.585Z" transform="translate(-152.324 -268.503)" fill="#5c6bc0"/>
      </g>
    </g>
    <g id="Agrupar_31" data-name="Agrupar 31" transform="translate(9.301 72.009)">
      <g id="Agrupar_30" data-name="Agrupar 30" transform="translate(0 0)">
        <path id="Caminho_70" data-name="Caminho 70" d="M101.664,308.589H88.981a.793.793,0,0,0,0,1.585h12.683a.793.793,0,1,0,0-1.585Z" transform="translate(-88.188 -308.589)" fill="#5c6bc0"/>
      </g>
    </g>
    <g id="Agrupar_33" data-name="Agrupar 33" transform="translate(20.293 63.554)">
      <g id="Agrupar_32" data-name="Agrupar 32">
        <path id="Caminho_71" data-name="Caminho 71" d="M196.584,228.418H193.2a.793.793,0,0,0,0,1.585h3.382a.793.793,0,0,0,0-1.585Z" transform="translate(-192.409 -228.418)" fill="#5c6bc0"/>
      </g>
    </g>
    <g id="Agrupar_35" data-name="Agrupar 35" transform="translate(0 44.116)">
      <g id="Agrupar_34" data-name="Agrupar 34" transform="translate(0 0)">
        <path id="Caminho_72" data-name="Caminho 72" d="M53.281,47.226l-2.391-2.391a2.507,2.507,0,0,0-3.513,0l-7.134,7.134a4.181,4.181,0,0,0-3.937-2.789H30.421a.793.793,0,0,0,0,1.585h5.884a2.592,2.592,0,0,1,2.588,2.552L27.647,64.564a.8.8,0,0,0-.179.276l-2.989,7.772A.8.8,0,0,0,25.5,73.637l7.772-2.989a.825.825,0,0,0,.276-.179l5.344-5.344V76.184a2.592,2.592,0,0,1-2.589,2.589H19.394a.793.793,0,0,0-.793.793v6.763L9.756,78.957a.793.793,0,0,0-.508-.184H4.175a2.592,2.592,0,0,1-2.589-2.589V53.355a2.592,2.592,0,0,1,2.589-2.589H26.863a.793.793,0,0,0,0-1.585H4.175A4.179,4.179,0,0,0,0,53.355V76.184a4.18,4.18,0,0,0,4.175,4.175H8.961l9.926,8.272a.8.8,0,0,0,1.3-.609V80.359H36.3a4.18,4.18,0,0,0,4.175-4.175V63.818a.79.79,0,0,0-.038-.241L53.281,50.738A2.507,2.507,0,0,0,53.281,47.226Zm-7.137,1.084,1.271,1.271L30.6,66.4l-1.271-1.271ZM26.6,71.517,27.18,70l.932.932Zm3.134-1.206L27.8,68.383l.706-1.835,3.058,3.058Zm3.258-1.525L31.72,67.516,48.535,50.7l1.271,1.271ZM52.16,49.617,50.927,50.85l-3.662-3.662L48.5,45.955a.9.9,0,0,1,1.271,0l2.391,2.391A.9.9,0,0,1,52.16,49.617Z" transform="translate(0 -44.116)" fill="#5c6bc0"/>
      </g>
    </g>
  </g>
</svg>
