<svg xmlns="http://www.w3.org/2000/svg" width="40.646" height="42.904" viewBox="0 0 40.646 42.904">
  <g id="list" transform="translate(-1.5)">
    <path id="Caminho_57" data-name="Caminho 57" d="M46.22,45.015a.756.756,0,0,0-.888.588,8.251,8.251,0,0,1-8.107,6.924,8.681,8.681,0,0,1-8.241-6.022h3.537V45H26.5v6.022h1.505v-2.9a10.2,10.2,0,0,0,9.22,5.908,9.724,9.724,0,0,0,9.583-8.13A.753.753,0,0,0,46.22,45.015Z" transform="translate(-6.182 -11.128)" fill="#5c6bc0"/>
    <path id="Caminho_58" data-name="Caminho 58" d="M46.318,35.5A9.877,9.877,0,0,0,37.473,30a10.34,10.34,0,0,0-9.943,7.317.752.752,0,0,0,1.445.42,8.941,8.941,0,0,1,8.5-6.232,8.416,8.416,0,0,1,7.775,5.269H41.8V38.28h6.022V32.258H46.318Z" transform="translate(-6.43 -7.419)" fill="#5c6bc0"/>
    <path id="Caminho_59" data-name="Caminho 59" d="M28.253,13.505H41.8A.753.753,0,1,0,41.8,12H28.253a.753.753,0,0,0,0,1.505Z" transform="translate(-6.43 -2.968)" fill="#5c6bc0"/>
    <path id="Caminho_60" data-name="Caminho 60" d="M28.253,27.505H41.8A.753.753,0,1,0,41.8,26H28.253a.753.753,0,0,0,0,1.505Z" transform="translate(-6.43 -6.43)" fill="#5c6bc0"/>
    <path id="Caminho_61" data-name="Caminho 61" d="M18.845,7.181a.752.752,0,0,0-1.061.081l-4.7,5.486L10.2,10.591a.752.752,0,0,0-.9,1.2l3.441,2.581a.752.752,0,0,0,1.023-.113l5.161-6.022A.75.75,0,0,0,18.845,7.181Z" transform="translate(-1.855 -1.731)" fill="#5c6bc0"/>
    <path id="Caminho_62" data-name="Caminho 62" d="M18.845,21.181a.752.752,0,0,0-1.061.081l-4.7,5.486L10.2,24.591a.752.752,0,0,0-.9,1.2l3.441,2.581a.752.752,0,0,0,1.023-.113l5.161-6.022A.75.75,0,0,0,18.845,21.181Z" transform="translate(-1.855 -5.193)" fill="#5c6bc0"/>
    <path id="Caminho_63" data-name="Caminho 63" d="M17.784,36.264l-4.7,5.485L10.2,39.591a.752.752,0,0,0-.9,1.2l3.441,2.581a.752.752,0,0,0,1.023-.113l5.161-6.021a.752.752,0,1,0-1.143-.979Z" transform="translate(-1.855 -8.903)" fill="#5c6bc0"/>
    <path id="Caminho_64" data-name="Caminho 64" d="M32.981,0H10.665A9.175,9.175,0,0,0,1.5,9.165V31.481a9.175,9.175,0,0,0,9.165,9.165h6.642a.753.753,0,1,0,0-1.505H10.665a7.667,7.667,0,0,1-7.66-7.66V9.165a7.667,7.667,0,0,1,7.66-7.66H32.981a7.667,7.667,0,0,1,7.66,7.66V20.323a.753.753,0,1,0,1.505,0V9.165A9.175,9.175,0,0,0,32.981,0Z" fill="#5c6bc0"/>
  </g>
</svg>
