<svg xmlns="http://www.w3.org/2000/svg" width="41.971" height="43.525" viewBox="0 0 41.971 43.525">
  <g id="list_4_" data-name="list (4)" transform="translate(-1)">
    <path id="Caminho_11" data-name="Caminho 11" d="M45.425,45.326l5.04-2.52-13.709-5.05,5.05,13.709,2.52-5.04,5.283,5.283a.777.777,0,0,0,1.1-1.1Zm-6.046-4.947,7.176,2.644-3.022,1.51-1.51,3.022Z" transform="translate(-7.965 -8.411)" fill="#5c6bc0"/>
    <path id="Caminho_12" data-name="Caminho 12" d="M27.777,13.554h13.99a.777.777,0,0,0,0-1.554H27.777a.777.777,0,1,0,0,1.554Z" transform="translate(-5.792 -2.673)" fill="#5c6bc0"/>
    <path id="Caminho_13" data-name="Caminho 13" d="M27.777,27.554h13.99a.777.777,0,0,0,0-1.554H27.777a.777.777,0,0,0,0,1.554Z" transform="translate(-5.792 -5.792)" fill="#5c6bc0"/>
    <path id="Caminho_14" data-name="Caminho 14" d="M18.666,7.187a.776.776,0,0,0-1.1.084l-4.856,5.664L9.744,10.708a.777.777,0,0,0-.932,1.243l3.553,2.665a.776.776,0,0,0,1.056-.117L18.75,8.282A.775.775,0,0,0,18.666,7.187Z" transform="translate(-1.671 -1.559)" fill="#5c6bc0"/>
    <path id="Caminho_15" data-name="Caminho 15" d="M18.666,21.187a.776.776,0,0,0-1.1.084l-4.856,5.664L9.744,24.708a.777.777,0,0,0-.932,1.243l3.553,2.665a.776.776,0,0,0,1.056-.117l5.329-6.218A.775.775,0,0,0,18.666,21.187Z" transform="translate(-1.671 -4.678)" fill="#5c6bc0"/>
    <path id="Caminho_16" data-name="Caminho 16" d="M17.57,36.272l-4.856,5.664L9.744,39.708a.777.777,0,0,0-.932,1.243l3.553,2.665a.776.776,0,0,0,1.056-.117l5.329-6.217a.777.777,0,1,0-1.18-1.01Z" transform="translate(-1.671 -8.02)" fill="#5c6bc0"/>
    <path id="Caminho_17" data-name="Caminho 17" d="M33.507,0H10.464A9.474,9.474,0,0,0,1,9.464V32.507a9.474,9.474,0,0,0,9.464,9.464H25.871a.777.777,0,1,0,0-1.554H10.464a7.917,7.917,0,0,1-7.909-7.909V9.464a7.917,7.917,0,0,1,7.909-7.909H33.507a7.917,7.917,0,0,1,7.909,7.909V28.757a.777.777,0,0,0,1.554,0V9.464A9.474,9.474,0,0,0,33.507,0Z" fill="#5c6bc0"/>
  </g>
</svg>
