<svg xmlns="http://www.w3.org/2000/svg" width="31.333" height="40" viewBox="0 0 31.333 40">
  <g id="list_6_" data-name="list (6)" transform="translate(-6.5)">
    <path id="Caminho_50" data-name="Caminho 50" d="M28.109,0H6.5V40H37.833V9.724ZM28.5,2.276l7.057,7.057H28.5ZM7.833,38.667V1.333H27.167v9.333H36.5v28Z" fill="#5c6bc0"/>
    <path id="Caminho_51" data-name="Caminho 51" d="M36.833,21H26.167a.667.667,0,0,0,0,1.333H36.833a.667.667,0,1,0,0-1.333Z" transform="translate(-6.333 -7)" fill="#5c6bc0"/>
    <path id="Caminho_52" data-name="Caminho 52" d="M20.417,18.146,17.549,20.44l-.911-.911a.667.667,0,1,0-.943.943L17.029,21.8a.666.666,0,0,0,.887.049l3.333-2.667a.667.667,0,0,0-.833-1.041Z" transform="translate(-3 -6)" fill="#5c6bc0"/>
    <path id="Caminho_53" data-name="Caminho 53" d="M36.833,32H26.167a.667.667,0,1,0,0,1.333H36.833a.667.667,0,1,0,0-1.333Z" transform="translate(-6.333 -10.667)" fill="#5c6bc0"/>
    <path id="Caminho_54" data-name="Caminho 54" d="M20.417,29.146,17.549,31.44l-.911-.911a.667.667,0,1,0-.943.943L17.029,32.8a.666.666,0,0,0,.887.049l3.333-2.667a.667.667,0,0,0-.833-1.041Z" transform="translate(-3 -9.667)" fill="#5c6bc0"/>
    <path id="Caminho_55" data-name="Caminho 55" d="M36.833,43H26.167a.667.667,0,1,0,0,1.333H36.833a.667.667,0,1,0,0-1.333Z" transform="translate(-6.333 -14.333)" fill="#5c6bc0"/>
    <path id="Caminho_56" data-name="Caminho 56" d="M20.417,40.146,17.549,42.44l-.911-.911a.667.667,0,0,0-.943.943L17.029,43.8a.666.666,0,0,0,.887.049l3.333-2.667a.667.667,0,0,0-.833-1.041Z" transform="translate(-3 -13.333)" fill="#5c6bc0"/>
  </g>
</svg>
