<svg id="list_5_" data-name="list (5)" xmlns="http://www.w3.org/2000/svg" width="43.525" height="43.525" viewBox="0 0 43.525 43.525">
  <path id="Caminho_18" data-name="Caminho 18" d="M41.234,27.264V9.3a9.308,9.308,0,0,0-9.3-9.3H9.3A9.308,9.308,0,0,0,0,9.3V31.937a9.308,9.308,0,0,0,9.3,9.3H27.264a9.92,9.92,0,0,0,13.97-13.97ZM9.3,39.707a7.779,7.779,0,0,1-7.77-7.77V9.3A7.779,7.779,0,0,1,9.3,1.527H31.937a7.779,7.779,0,0,1,7.77,7.77V25.785c-.057-.045-.118-.083-.176-.127-.16-.121-.321-.241-.489-.351l-.054-.033a9.9,9.9,0,0,0-1.234-.678c-.058-.027-.115-.057-.173-.083-.168-.074-.34-.137-.512-.2-.109-.041-.218-.083-.329-.121-.158-.053-.318-.1-.479-.144-.137-.038-.274-.074-.412-.106s-.291-.066-.439-.094c-.176-.033-.353-.058-.531-.081-.119-.015-.237-.034-.358-.046-.305-.03-.613-.047-.922-.047a9.937,9.937,0,0,0-9.65,7.636H20.617a.764.764,0,1,0,0,1.527H23.71c-.02.253-.039.506-.039.764,0,.309.018.617.047.922.011.121.03.24.046.36.023.176.048.353.081.527.027.149.06.3.095.443s.067.272.1.407c.046.163.092.325.147.485.036.108.077.213.117.319.066.176.131.35.205.522.022.05.049.1.072.15a9.827,9.827,0,0,0,.7,1.275c.007.011.013.022.02.032.111.169.232.33.353.492.044.058.082.118.126.176ZM33.6,42a8.355,8.355,0,0,1-5.6-2.161q-.277-.249-.529-.518c-.037-.04-.073-.08-.11-.121q-.239-.267-.454-.551c-.033-.044-.066-.087-.1-.131q-.212-.293-.4-.6c-.025-.041-.051-.082-.076-.124-.125-.216-.239-.438-.344-.664-.017-.036-.035-.07-.051-.107-.106-.236-.2-.477-.283-.722-.01-.031-.023-.06-.033-.089-.082-.249-.15-.5-.208-.76-.007-.03-.017-.059-.023-.089-.055-.253-.094-.509-.124-.767,0-.036-.012-.071-.016-.108A8.279,8.279,0,0,1,25.2,33.6a8.409,8.409,0,0,1,8.4-8.4,8.148,8.148,0,0,1,.887.048c.034,0,.067.011.1.016.26.031.518.071.773.126.029.006.057.016.086.022.258.059.513.127.764.209.028.009.056.021.084.031q.371.126.729.286l.1.048q.342.159.67.347c.04.023.079.048.118.072.208.126.412.259.609.4l.124.093q.289.218.559.46c.038.034.076.068.113.1q.274.255.527.538A8.385,8.385,0,0,1,33.6,42Z" fill="#5c6bc0"/>
  <path id="Caminho_19" data-name="Caminho 19" d="M46.927,41.582H43.109V37.764a.764.764,0,0,0-1.527,0v3.818H37.764a.764.764,0,0,0,0,1.527h3.818v3.818a.764.764,0,0,0,1.527,0V43.109h3.818a.764.764,0,0,0,0-1.527Z" transform="translate(-8.747 -8.747)" fill="#5c6bc0"/>
  <path id="Caminho_20" data-name="Caminho 20" d="M26.764,13.527H40.508a.764.764,0,1,0,0-1.527H26.764a.764.764,0,0,0,0,1.527Z" transform="translate(-6.147 -2.837)" fill="#5c6bc0"/>
  <path id="Caminho_21" data-name="Caminho 21" d="M26.764,27.527H40.508a.764.764,0,1,0,0-1.527H26.764a.764.764,0,1,0,0,1.527Z" transform="translate(-6.147 -6.147)" fill="#5c6bc0"/>
  <path id="Caminho_22" data-name="Caminho 22" d="M16.41,7.267l-4.771,5.565L8.722,10.643a.763.763,0,1,0-.916,1.221l3.49,2.618a.764.764,0,0,0,1.038-.115L17.57,8.259a.763.763,0,1,0-1.16-.992Z" transform="translate(-1.773 -1.655)" fill="#5c6bc0"/>
  <path id="Caminho_23" data-name="Caminho 23" d="M16.41,21.267l-4.771,5.565L8.722,24.643a.763.763,0,1,0-.916,1.221l3.49,2.618a.764.764,0,0,0,1.038-.115l5.236-6.109a.763.763,0,1,0-1.16-.992Z" transform="translate(-1.773 -4.965)" fill="#5c6bc0"/>
  <path id="Caminho_24" data-name="Caminho 24" d="M16.41,36.267l-4.771,5.564L8.722,39.643a.763.763,0,1,0-.916,1.221l3.49,2.618a.764.764,0,0,0,1.038-.115L17.57,37.26a.763.763,0,1,0-1.16-.993Z" transform="translate(-1.773 -8.511)" fill="#5c6bc0"/>
</svg>
