<svg xmlns="http://www.w3.org/2000/svg" width="41.846" height="42.592" viewBox="0 0 41.846 42.592">
  <g id="list_3_" data-name="list (3)" transform="translate(-0.499)">
    <path id="Caminho_2" data-name="Caminho 2" d="M49.149,48.222,40.3,33.048a1.673,1.673,0,0,0-2.89,0L28.558,48.222A1.672,1.672,0,0,0,30,50.736H47.7a1.673,1.673,0,0,0,1.444-2.514Zm-1.291.931a.167.167,0,0,1-.153.089H30a.168.168,0,0,1-.154-.089.17.17,0,0,1,0-.178L38.7,33.8a.169.169,0,0,1,.153-.088.171.171,0,0,1,.154.088l8.851,15.173A.169.169,0,0,1,47.858,49.153Z" transform="translate(-7.034 -8.144)" fill="#5c6bc0"/>
    <path id="Caminho_3" data-name="Caminho 3" d="M42.246,39a.747.747,0,0,0-.747.747v5.978a.747.747,0,1,0,1.494,0V39.747A.747.747,0,0,0,42.246,39Z" transform="translate(-10.364 -9.858)" fill="#5c6bc0"/>
    <path id="Caminho_4" data-name="Caminho 4" d="M41.716,51.219a.758.758,0,0,0,0,1.061.743.743,0,0,0,.531.217.772.772,0,0,0,.531-.217.758.758,0,0,0,0-1.061A.775.775,0,0,0,41.716,51.219Z" transform="translate(-10.364 -12.894)" fill="#5c6bc0"/>
    <path id="Caminho_5" data-name="Caminho 5" d="M27.246,12a.747.747,0,1,0,0,1.494H40.7A.747.747,0,0,0,40.7,12Z" transform="translate(-6.572 -3.033)" fill="#5c6bc0"/>
    <path id="Caminho_6" data-name="Caminho 6" d="M41.444,26.747A.747.747,0,0,0,40.7,26H27.246a.747.747,0,1,0,0,1.494H40.7A.747.747,0,0,0,41.444,26.747Z" transform="translate(-6.572 -6.572)" fill="#5c6bc0"/>
    <path id="Caminho_7" data-name="Caminho 7" d="M17.773,7.18a.747.747,0,0,0-1.054.081L12.05,12.707,9.194,10.565a.747.747,0,1,0-.9,1.195l3.416,2.563a.747.747,0,0,0,1.016-.112l5.124-5.978A.746.746,0,0,0,17.773,7.18Z" transform="translate(-1.896 -1.769)" fill="#5c6bc0"/>
    <path id="Caminho_8" data-name="Caminho 8" d="M17.773,21.18a.747.747,0,0,0-1.054.081L12.05,26.707,9.194,24.565a.747.747,0,1,0-.9,1.195l3.416,2.563a.747.747,0,0,0,1.016-.112l5.124-5.978A.746.746,0,0,0,17.773,21.18Z" transform="translate(-1.896 -5.308)" fill="#5c6bc0"/>
    <path id="Caminho_9" data-name="Caminho 9" d="M16.719,36.262,12.05,41.707,9.194,39.565a.747.747,0,1,0-.9,1.195l3.416,2.562a.747.747,0,0,0,1.016-.112l5.124-5.977a.747.747,0,1,0-1.134-.971Z" transform="translate(-1.896 -9.1)" fill="#5c6bc0"/>
    <path id="Caminho_10" data-name="Caminho 10" d="M17.685,38.856H9.6a7.612,7.612,0,0,1-7.6-7.6V9.1a7.612,7.612,0,0,1,7.6-7.6H31.751a7.612,7.612,0,0,1,7.6,7.6V26.961a.747.747,0,1,0,1.494,0V9.1a9.108,9.108,0,0,0-9.1-9.1H9.6A9.108,9.108,0,0,0,.5,9.1V31.252a9.108,9.108,0,0,0,9.1,9.1h8.088a.747.747,0,1,0,0-1.494Z" fill="#5c6bc0"/>
  </g>
</svg>
